<?xml version="1.0" standalone="no"?>
<!DOCTYPE svg PUBLIC "-//W3C//DTD SVG 20010904//EN"
 "http://www.w3.org/TR/2001/REC-SVG-20010904/DTD/svg10.dtd">
<svg version="1.0" xmlns="http://www.w3.org/2000/svg"
 width="200.000000pt" height="200.000000pt" viewBox="0 0 200.000000 200.000000"
 preserveAspectRatio="xMidYMid meet">

<g transform="translate(0.000000,200.000000) scale(0.100000,-0.100000)"
fill="#000000" stroke="none">
<path d="M868 1810 c-292 -53 -534 -250 -634 -516 -166 -442 66 -926 516
-1076 90 -31 102 -32 250 -32 148 0 160 1 250 32 242 81 429 257 516 488 171
453 -81 952 -547 1084 -83 24 -273 35 -351 20z m-61 -483 c32 -17 493 -611
493 -634 0 -6 -18 -22 -39 -36 l-39 -26 -214 267 -213 267 -3 -247 -2 -248
-59 0 -59 0 -4 328 c-2 180 -3 330 -1 335 7 12 116 8 140 -6z m523 -132 l0
-145 -60 0 -60 0 0 145 0 145 60 0 60 0 0 -145z"/>
</g>
</svg>
