<?xml version="1.0" standalone="no"?>
<!DOCTYPE svg PUBLIC "-//W3C//DTD SVG 20010904//EN"
 "http://www.w3.org/TR/2001/REC-SVG-20010904/DTD/svg10.dtd">
<svg version="1.0" xmlns="http://www.w3.org/2000/svg"
 width="1985.000000pt" height="2047.000000pt" viewBox="0 0 1985.000000 2047.000000"
 preserveAspectRatio="xMidYMid meet">

<g transform="translate(0.000000,2047.000000) scale(0.100000,-0.100000)"
fill="#000000" stroke="none">
<path d="M13900 20460 c-646 -38 -1298 -143 -1861 -301 l-147 -42 -168 27
c-555 85 -1293 126 -1752 97 -756 -48 -1430 -236 -2014 -562 l-108 -60 -172
55 c-846 268 -1606 423 -2448 498 -228 20 -1021 17 -1225 -5 -699 -76 -1220
-219 -1729 -474 -971 -486 -1654 -1328 -1992 -2456 -152 -509 -229 -1009 -255
-1674 -13 -313 -1 -762 26 -1023 82 -775 369 -2195 691 -3420 431 -1632 924
-2998 1425 -3944 489 -923 987 -1489 1554 -1766 620 -303 1296 -229 1873 205
l97 74 42 -48 c55 -63 189 -175 285 -240 167 -111 398 -218 620 -285 137 -41
462 -109 628 -130 647 -84 1264 -15 1797 200 47 19 87 33 89 31 2 -2 8 -152
14 -333 39 -1289 99 -1965 221 -2504 33 -142 176 -590 260 -812 339 -896 925
-1402 1779 -1535 159 -25 581 -25 760 0 322 45 790 157 1091 262 1031 358
1679 1081 2041 2275 213 703 331 1559 378 2735 10 233 29 457 41 469 2 3 85 0
184 -7 288 -17 769 12 1120 68 449 72 848 184 1150 320 639 290 1188 704 1453
1098 63 93 120 208 163 327 l34 95 0 225 c0 211 -1 229 -24 295 -93 273 -274
478 -525 596 -161 75 -325 109 -534 109 -143 0 -259 -14 -535 -66 -378 -71
-770 -121 -888 -112 l-46 3 132 230 c640 1116 1184 2322 1592 3530 416 1234
659 2345 734 3355 16 214 16 738 1 905 -37 391 -98 677 -199 935 -100 255
-194 407 -403 656 -644 766 -1405 1319 -2311 1677 -588 233 -1198 372 -1894
432 -211 19 -834 27 -1045 15z m664 -540 c1371 -55 2482 -451 3426 -1220 308
-250 691 -653 863 -907 243 -358 354 -951 319 -1700 -102 -2171 -1183 -5190
-2710 -7567 -91 -141 -112 -180 -101 -187 79 -54 213 -102 358 -129 397 -75
887 -46 1626 95 388 74 552 70 717 -17 72 -38 142 -112 175 -184 139 -305
-118 -687 -732 -1089 -319 -208 -616 -352 -910 -439 -733 -217 -1639 -275
-2178 -140 -54 13 -99 24 -101 24 -2 0 -6 -35 -10 -77 -14 -155 -118 -1033
-187 -1573 -144 -1137 -242 -1798 -314 -2120 -184 -823 -540 -1346 -1150
-1688 -356 -200 -922 -374 -1422 -438 -157 -20 -491 -23 -623 -5 -800 107
-1344 577 -1697 1466 -86 216 -130 418 -177 818 -75 628 -113 1441 -123 2639
l-6 747 -50 -45 c-239 -215 -602 -414 -934 -513 -286 -84 -503 -115 -833 -115
-316 0 -519 23 -840 96 -417 94 -763 294 -883 510 -52 92 -70 159 -69 253 1
195 127 361 363 478 140 70 304 121 584 183 643 142 833 212 986 364 85 85
399 473 399 494 0 10 -24 15 -92 20 -340 26 -630 102 -933 245 -89 42 -111 49
-123 39 -27 -23 -452 -487 -692 -758 -290 -327 -499 -567 -746 -860 -227 -270
-301 -349 -416 -446 -282 -236 -548 -344 -848 -344 -269 0 -498 82 -773 277
-101 72 -378 345 -479 473 -549 697 -1077 1843 -1568 3405 -490 1559 -948
3601 -1062 4735 -17 172 -17 945 0 1155 31 371 81 691 158 1004 359 1460 1308
2382 2756 2676 337 69 595 95 1013 102 432 7 791 -15 1230 -78 654 -93 1430
-284 2047 -505 l127 -45 58 39 c272 183 672 365 1031 468 418 120 796 168
1307 168 506 -1 997 -57 1434 -163 74 -17 74 -17 130 5 92 37 421 128 641 178
499 111 997 177 1475 195 292 11 298 11 559 1z"/>
<path d="M13975 19344 c-166 -9 -464 -37 -635 -60 -174 -23 -520 -81 -528 -88
-1 -2 39 -23 90 -47 1006 -472 1878 -1223 2564 -2209 387 -555 721 -1219 877
-1740 68 -224 68 -233 57 -630 -6 -195 -12 -366 -15 -380 -2 -14 -12 -86 -20
-160 -9 -74 -34 -252 -55 -395 -76 -502 -91 -660 -90 -970 0 -248 12 -404 70
-897 70 -604 74 -663 74 -1028 0 -290 -3 -357 -22 -498 -59 -440 -187 -826
-384 -1165 -26 -44 -36 -72 -31 -80 5 -7 27 -33 48 -60 l38 -47 95 152 c760
1225 1450 2716 1885 4078 314 983 501 1836 584 2660 22 222 25 836 5 1005 -31
251 -88 472 -160 610 -72 137 -362 472 -595 684 -811 740 -1771 1142 -2992
1251 -121 11 -730 21 -860 14z"/>
<path d="M10010 19124 c-19 -2 -91 -9 -160 -15 -464 -41 -953 -186 -1333 -395
-299 -165 -513 -329 -767 -590 -669 -686 -1122 -1739 -1314 -3051 -29 -198
-62 -510 -55 -517 3 -3 75 30 159 72 419 211 851 352 1257 412 938 136 1608
-223 1863 -998 86 -263 202 -925 256 -1467 22 -218 30 -810 15 -1030 -36 -515
-136 -959 -324 -1441 -30 -77 -115 -276 -189 -444 -142 -320 -180 -416 -309
-775 -76 -211 -163 -485 -156 -492 2 -1 30 2 63 8 185 35 458 -34 663 -167
255 -167 443 -465 510 -809 18 -93 19 -123 11 -415 -12 -434 -12 -1951 0
-2365 37 -1286 117 -2080 238 -2386 205 -516 454 -830 790 -998 88 -44 250
-97 357 -116 126 -23 375 -30 520 -15 330 33 786 153 1087 285 225 98 392 210
548 365 241 240 396 560 505 1044 82 361 259 1637 429 3096 92 787 108 948
116 1215 12 373 44 537 147 742 121 244 334 420 618 513 39 12 74 26 78 30 5
4 -45 74 -109 156 -363 459 -459 611 -644 1016 -37 80 -166 325 -287 545 -415
750 -610 1138 -809 1610 -635 1506 -599 2526 108 3059 171 128 428 241 668
292 314 68 751 85 1137 46 l62 -7 -33 89 c-201 539 -508 1092 -885 1592 -365
484 -760 883 -1206 1217 -872 654 -1835 1008 -2955 1085 -132 9 -586 11 -670
4z"/>
<path d="M4320 19079 c-1874 -106 -2912 -1105 -3124 -3009 -49 -434 -51 -1106
-6 -1465 81 -638 258 -1560 476 -2470 486 -2033 1095 -3737 1684 -4715 186
-309 338 -511 524 -695 132 -131 235 -207 352 -261 178 -83 337 -82 509 0 162
79 293 197 539 491 398 473 851 988 1278 1452 l158 171 -143 144 c-227 226
-390 446 -528 712 -305 587 -399 1172 -305 1901 60 475 79 787 80 1330 0 342
-5 535 -24 870 -22 397 -23 450 -11 700 18 407 53 747 117 1123 224 1329 711
2409 1418 3149 102 107 111 89 -75 147 -1026 318 -2084 472 -2919 425z"/>
<path d="M15009 14580 c-292 -23 -529 -87 -707 -192 -31 -18 -98 -73 -147
-123 -77 -76 -98 -105 -137 -185 -254 -518 -57 -1433 593 -2745 140 -284 257
-504 502 -945 99 -179 211 -390 250 -470 142 -299 178 -370 185 -370 23 0 135
326 176 510 51 233 61 339 60 690 0 350 -3 385 -74 995 -64 555 -65 569 -65
925 0 394 12 531 100 1105 44 289 64 459 74 630 4 77 7 141 6 142 -1 2 -73 10
-161 18 -197 19 -514 26 -655 15z m86 -275 c133 -28 205 -86 205 -165 0 -66
-60 -168 -149 -252 -180 -172 -387 -212 -586 -114 -130 64 -235 179 -235 258
0 123 159 225 422 273 99 18 258 18 343 0z"/>
<path d="M7995 14483 c-488 -46 -1188 -311 -1582 -600 l-64 -48 6 -50 c3 -27
12 -187 20 -355 41 -891 24 -1443 -72 -2200 -29 -233 -35 -506 -14 -675 47
-381 180 -750 378 -1050 305 -461 741 -784 1234 -914 124 -33 290 -58 411 -63
l76 -3 23 85 c30 115 95 311 191 575 107 295 155 411 296 730 66 149 141 324
167 390 296 746 368 1505 239 2525 -43 346 -139 859 -190 1022 -137 433 -452
643 -954 636 -69 -1 -143 -3 -165 -5z m467 -328 c274 -57 433 -170 431 -307
-2 -125 -151 -277 -331 -337 -177 -60 -355 -24 -523 105 -116 89 -209 234
-209 324 0 62 11 120 22 120 5 0 26 14 47 30 42 34 128 67 210 80 74 12 262 4
353 -15z"/>
<path d="M15827 7869 c-222 -68 -306 -124 -371 -248 -54 -103 -76 -208 -83
-396 l-5 -160 29 -17 c45 -26 191 -65 315 -85 142 -22 635 -25 828 -5 412 43
823 132 1077 233 172 68 435 209 612 328 107 72 295 221 288 228 -3 2 -52 -5
-109 -16 -264 -53 -625 -103 -877 -122 -207 -15 -671 -7 -811 16 -288 45 -511
122 -676 235 -40 27 -77 50 -81 49 -4 0 -66 -18 -136 -40z"/>
<path d="M9042 7809 c-85 -42 -182 -148 -489 -529 -77 -96 -181 -213 -229
-260 -242 -233 -529 -350 -1209 -495 -242 -52 -457 -114 -470 -135 -7 -12 157
-94 258 -129 111 -39 392 -96 567 -116 157 -17 439 -20 578 -4 608 66 1097
346 1474 846 81 107 98 154 98 269 0 144 -64 301 -170 417 -118 128 -300 189
-408 136z"/>
</g>
</svg>
